<?xml version="1.0" encoding="UTF-8" standalone="no"?>
<svg xmlns="http://www.w3.org/2000/svg" xmlns:xlink="http://www.w3.org/1999/xlink" width="224" height="312" viewBox="0 0 224 312">
  <defs>
    <pattern id="crosshatch" patternUnits="userSpaceOnUse" width="8" height="8" patternTransform="rotate(45)">
      <rect width="8" height="8" fill="#741b15"/>
      <line x1="0" y1="0" x2="0" y2="8" stroke="#8c352d" stroke-width="1"/>
    </pattern>
    
    <linearGradient id="cardGradient" x1="0%" y1="0%" x2="100%" y2="100%">
      <stop offset="0%" style="stop-color:#8c352d;stop-opacity:1" />
      <stop offset="100%" style="stop-color:#741b15;stop-opacity:1" />
    </linearGradient>
  </defs>
  
  <!-- Card background -->
  <rect width="224" height="312" rx="12" ry="12" fill="url(#cardGradient)" stroke="#000" stroke-width="1"/>
  
  <!-- Edge distressing -->
  <rect width="220" height="308" x="2" y="2" rx="10" ry="10" fill="none" stroke="#611812" stroke-width="0.5" stroke-dasharray="1,0.5"/>
  
  <!-- Ornate border -->
  <rect x="16" y="16" width="192" height="280" rx="4" ry="4" fill="none" stroke="#d9a76a" stroke-width="1.5"/>
  <rect x="20" y="20" width="184" height="272" rx="2" ry="2" fill="none" stroke="#d9a76a" stroke-width="0.75"/>
  
  <!-- Pattern background -->
  <rect x="24" y="24" width="176" height="264" fill="url(#crosshatch)" opacity="0.75"/>
  
  <!-- Center ornate design -->
  <g transform="translate(112, 156)">
    <!-- Outer oval border -->
    <ellipse cx="0" cy="0" rx="60" ry="80" fill="none" stroke="#d9a76a" stroke-width="2"/>
    
    <!-- Diamond patterns -->
    <path d="M0,-70 L-20,-50 L0,-30 L20,-50 Z" fill="#d9a76a" stroke="#d9a76a" stroke-width="0.5"/>
    <path d="M0,70 L-20,50 L0,30 L20,50 Z" fill="#d9a76a" stroke="#d9a76a" stroke-width="0.5"/>
    <path d="M-50,0 L-30,-20 L-10,0 L-30,20 Z" fill="#d9a76a" stroke="#d9a76a" stroke-width="0.5"/>
    <path d="M50,0 L30,-20 L10,0 L30,20 Z" fill="#d9a76a" stroke="#d9a76a" stroke-width="0.5"/>
    
    <!-- Center design elements -->
    <circle cx="0" cy="0" r="30" fill="#8c352d" stroke="#d9a76a" stroke-width="1.5"/>
    <circle cx="0" cy="0" r="25" fill="url(#crosshatch)"/>
    
    <!-- Vintage spade symbol -->
    <path d="M0,-15 C-8,-15 -15,-8 -15,0 C-15,5 -12,10 -5,15 L0,25 L5,15 C12,10 15,5 15,0 C15,-8 8,-15 0,-15 Z" fill="#d9a76a" stroke="#8c352d" stroke-width="0.5"/>
    <path d="M0,15 L0,5 C-3,8 -7,8 -10,5 C-7,12 0,12 0,15 Z" fill="#8c352d"/>
    
    <!-- Decorative flourishes -->
    <path d="M-8,-8 C-15,-15 -15,-25 -8,-32 M8,-8 C15,-15 15,-25 8,-32 M-8,8 C-15,15 -15,25 -8,32 M8,8 C15,15 15,25 8,32" stroke="#d9a76a" stroke-width="1" fill="none"/>
  </g>
  
  <!-- Corner decorations -->
  <circle cx="40" cy="40" r="12" fill="#741b15" stroke="#d9a76a" stroke-width="1"/>
  <circle cx="40" cy="40" r="8" fill="url(#crosshatch)"/>
  <circle cx="184" cy="40" r="12" fill="#741b15" stroke="#d9a76a" stroke-width="1"/>
  <circle cx="184" cy="40" r="8" fill="url(#crosshatch)"/>
  <circle cx="40" cy="272" r="12" fill="#741b15" stroke="#d9a76a" stroke-width="1"/>
  <circle cx="40" cy="272" r="8" fill="url(#crosshatch)"/>
  <circle cx="184" cy="272" r="12" fill="#741b15" stroke="#d9a76a" stroke-width="1"/>
  <circle cx="184" cy="272" r="8" fill="url(#crosshatch)"/>
  
  <!-- Worn edges effect -->
  <rect x="3" y="3" width="218" height="306" rx="10" ry="10" fill="none" stroke="#8c352d" stroke-width="2" opacity="0.3"/>
</svg> 